<?xml version="1.0" standalone="no"?>
<!DOCTYPE svg PUBLIC "-//W3C//DTD SVG 20010904//EN"
 "http://www.w3.org/TR/2001/REC-SVG-20010904/DTD/svg10.dtd">
<svg version="1.0" xmlns="http://www.w3.org/2000/svg"
 width="256.000000pt" height="256.000000pt" viewBox="0 0 256.000000 256.000000"
 preserveAspectRatio="xMidYMid meet">

<g transform="translate(0.000000,256.000000) scale(0.100000,-0.100000)"
fill="#ff822e" stroke="none">
<path d="M1105 2545 c-277 -44 -506 -158 -708 -354 -289 -278 -437 -685 -386
-1058 55 -409 290 -755 654 -966 176 -103 414 -167 615 -167 201 0 439 64 615
167 364 211 599 557 654 966 59 429 -145 892 -514 1169 -270 202 -617 293
-930 243z m318 -95 c263 -38 474 -141 666 -324 266 -255 401 -610 363 -957
-31 -277 -133 -496 -326 -698 -192 -200 -426 -321 -703 -361 -176 -25 -387 2
-572 74 -284 112 -555 383 -666 666 -110 280 -110 580 0 860 111 283 382 554
667 666 181 71 396 99 571 74z"/>
<path d="M1095 2325 c-126 -28 -278 -92 -372 -157 -51 -34 -57 -68 -18 -94 23
-15 27 -14 102 28 183 102 308 138 476 138 259 0 483 -94 673 -284 191 -191
284 -413 284 -676 0 -263 -93 -485 -284 -676 -191 -191 -413 -284 -676 -284
-263 0 -485 93 -676 284 -190 190 -284 414 -284 673 0 168 36 293 138 476 42
75 43 79 28 102 -38 58 -83 22 -158 -130 -76 -152 -108 -286 -108 -451 0 -279
101 -523 303 -731 207 -214 464 -323 757 -323 293 0 550 109 757 323 204 210
303 451 303 737 0 293 -109 550 -323 757 -157 152 -328 244 -539 287 -94 19
-297 20 -383 1z"/>
<path d="M542 2018 c-15 -15 -15 -51 0 -66 28 -28 78 -7 78 33 0 27 -18 45
-45 45 -12 0 -26 -5 -33 -12z"/>
<path d="M1660 1719 c-25 -8 -102 -78 -282 -256 l-247 -246 -100 96 c-77 74
-111 99 -143 108 -155 41 -290 -95 -248 -251 10 -39 37 -70 198 -232 162 -161
193 -188 232 -198 59 -16 125 -6 170 25 20 14 178 168 352 342 281 283 317
323 328 363 34 126 -46 246 -172 255 -29 3 -69 0 -88 -6z m136 -123 c43 -43
44 -79 5 -132 -55 -75 -615 -622 -644 -629 -51 -13 -79 5 -225 148 -165 162
-202 208 -202 250 0 40 57 97 97 97 40 0 62 -17 191 -144 l112 -111 263 261
c144 144 273 269 287 278 40 26 78 20 116 -18z"/>
</g>
</svg>
