<svg
    xmlns="http://www.w3.org/2000/svg"
    viewBox="0 0 512 512"
    id="vector">
    <path
        id="path"
        d="M 341.476 338.285 C 395.959 252.792 389.11 263.458 390.68 261.229 C 410.516 233.251 421 200.322 421 166 C 421 74.98 347.139 0 256 0 C 165.158 0 91 74.832 91 166 C 91 200.3 101.704 234.091 122.19 262.446 L 170.522 338.286 C 118.847 346.227 31 369.892 31 422 C 31 440.995 43.398 468.065 102.462 489.159 C 143.704 503.888 198.231 512 256 512 C 364.025 512 481 481.528 481 422 C 481 369.883 393.256 346.243 341.476 338.285 Z M 147.249 245.945 C 147.084 245.687 146.912 245.435 146.732 245.187 C 129.685 221.735 121 193.941 121 166 C 121 90.982 181.406 30 256 30 C 330.439 30 391 91.009 391 166 C 391 193.986 382.479 220.837 366.354 243.671 C 364.909 245.577 372.448 233.865 256 416.589 L 147.249 245.945 Z M 256 482 C 138.006 482 61 447.317 61 422 C 61 404.984 100.568 377.005 188.248 366.099 L 243.35 452.562 C 246.104 456.884 250.874 459.5 255.999 459.5 C 261.124 459.5 265.895 456.883 268.648 452.562 L 323.749 366.099 C 411.431 377.005 451 404.984 451 422 C 451 447.102 374.687 482 256 482 Z"
        fill="#000"/>
    <path
        id="path_1"
        d="M 256 91 C 214.645 91 181 124.645 181 166 C 181 207.355 214.645 241 256 241 C 297.355 241 331 207.355 331 166 C 331 124.645 297.355 91 256 91 Z M 256 211 C 231.187 211 211 190.813 211 166 C 211 141.187 231.187 121 256 121 C 280.813 121 301 141.187 301 166 C 301 190.813 280.813 211 256 211 Z"
        fill="#000"/>
</svg>
